<?xml version="1.0" standalone="no"?>
<!DOCTYPE svg PUBLIC "-//W3C//DTD SVG 1.1//EN""http://www.w3.org/Graphics/SVG/1.1/DTD/svg11.dtd">
<svg
        t="1620627506804"
        class="icon"
        viewBox="0 0 1024 1024"
        version="1.1"
        xmlns="http://www.w3.org/2000/svg"
        p-id="1812"
        width="200"
        height="200">
    <defs>
        <style type="text/css">

        </style>
    </defs>
    <path d="M512 264.838L363.046 384h297.906L512 264.838m0-72.348c3.538 0 7.074 1.168 9.996 3.506l274.386 219.51c11.81 9.448 5.128 28.494-9.996 28.494H237.612c-15.124 0-21.804-19.046-9.996-28.494L502.004 195.996A15.968 15.968 0 0 1 512 192.49zM772 832H252c-16.568 0-30-13.432-30-30s13.432-30 30-30h520c16.568 0 30 13.432 30 30s-13.432 30-30 30zM290 708c-16.568 0-30-13.432-30-30v-166c0-16.568 13.432-30 30-30s30 13.432 30 30v166c0 16.568-13.432 30-30 30z"
          fill="#2c2c2c"
          p-id="1813">
    </path>
    <path d="M438 708c-16.568 0-30-13.432-30-30v-166c0-16.568 13.432-30 30-30s30 13.432 30 30v166c0 16.568-13.432 30-30 30zM586 708c-16.568 0-30-13.432-30-30v-166c0-16.568 13.432-30 30-30s30 13.432 30 30v166c0 16.568-13.432 30-30 30z"
          fill="#2c2c2c"
          p-id="1814">
    </path>
    <path d="M734 708c-16.568 0-30-13.432-30-30v-166c0-16.568 13.432-30 30-30s30 13.432 30 30v166c0 16.568-13.432 30-30 30z"
          fill="#2c2c2c"
          p-id="1815">
    </path>
</svg>